<svg id="Layer_5" enable-background="new 0 0 64 64" height="512" viewBox="0 0 64 64" width="512" xmlns="http://www.w3.org/2000/svg"><g><path d="m7 25.626c0-.345.281-.626.626-.626h7.374v-2h-7.374c-1.448 0-2.626 1.178-2.626 2.626 0 .118.008.235.023.35l.421 3.156 1.982-.265z"/><path d="m31 32.101v-4.101c0-1.654-1.346-3-3-3-1.488 0-2.717 1.092-2.951 2.514-3.007 2.888-6.938 4.486-11.12 4.486h-3.929c-1.654 0-3 1.346-3 3v4c0 1.654 1.346 3 3 3h.198l2 9h4.802v-8.704c3.016.581 5.792 2.022 8.049 4.19.234 1.423 1.463 2.514 2.951 2.514 1.654 0 3-1.346 3-3v-4.101c2.279-.465 4-2.484 4-4.899s-1.721-4.434-4-4.899zm-16 1.847c3.668-.214 7.124-1.513 10-3.754v13.613c-2.876-2.241-6.332-3.541-10-3.754zm-6 5.052v-1h2v-2h-2v-1c0-.552.449-1 1-1h3v6h-3c-.551 0-1-.448-1-1zm6 10h-1.198l-1.556-7h1.682c.36 0 .715.029 1.071.052v6.948zm14-3c0 .552-.449 1-1 1s-1-.448-1-1v-18c0-.551.449-1 1-1s1 .449 1 1zm2-6.184v-5.631c1.161.414 2 1.514 2 2.816s-.839 2.401-2 2.815z"/><path d="m37 31h12v2h-12z"/><path d="m37 35h12v2h-12z"/><path d="m37 39h12v2h-12z"/><path d="m47 43h2v2h-2z"/><path d="m37 43h8v2h-8z"/><path d="m37 47h2v2h-2z"/><path d="m41 47h8v2h-8z"/><path d="m17 23h2v2h-2z"/><path d="m58.396 1h-26.792c-2.539 0-4.604 2.065-4.604 4.604 0 .335.037.671.11.999l2.754 12.397h-22.238c-3.653 0-6.626 2.973-6.626 6.626 0 .292.02.585.058.876l3.3 24.747c.437 3.278 3.261 5.751 6.568 5.751h7.74l7.356 5.517c.416.311.931.483 1.449.483h.115c1.331 0 2.414-1.083 2.414-2.414v-3.586h15c3.308 0 6.131-2.473 6.568-5.751l3.3-24.748c.039-.29.058-.583.058-.875 0-.211-.026-.418-.046-.626h.228c2.174 0 4.022-1.482 4.495-3.605l3.287-14.791c.073-.328.11-.664.11-1 0-2.539-2.065-4.604-4.604-4.604zm0 2c.24 0 .469.043.69.105l-14.086 11.6-14.086-11.6c.222-.062.45-.105.69-.105zm-5.47 22.626c0 .205-.014.409-.041.611l-3.3 24.748c-.304 2.289-2.276 4.015-4.585 4.015h-17v5.586c0 .228-.186.414-.414.414h-.115c-.088 0-.177-.029-.248-.083l-7.89-5.917h-8.407c-2.309 0-4.281-1.726-4.586-4.015l-3.3-24.747c-.026-.202-.04-.407-.04-.612 0-2.551 2.075-4.626 4.626-4.626h22.682l.088.395c.473 2.123 2.321 3.605 4.495 3.605h8.109v1.586c0 1.331 1.083 2.414 2.414 2.414.645 0 1.251-.251 1.707-.707l3.293-3.293h2.467c.028.207.045.416.045.626zm8.012-19.457-3.287 14.791c-.267 1.202-1.312 2.04-2.542 2.04h-5.523l-3.879 3.879c-.238.238-.707.045-.707-.293v-3.586h-10.109c-1.23 0-2.275-.838-2.542-2.039l-3.287-14.792c-.041-.185-.062-.375-.062-.565 0-.444.122-.856.319-1.223l15.681 12.914 15.681-12.913c.197.366.319.778.319 1.222 0 .19-.021.38-.062.565z"/></g></svg>