<?xml version="1.0" encoding="UTF-8" standalone="no"?>
<!-- Created with Inkscape (http://www.inkscape.org/) -->

<svg
   xmlns:dc="http://purl.org/dc/elements/1.1/"
   xmlns:cc="http://creativecommons.org/ns#"
   xmlns:rdf="http://www.w3.org/1999/02/22-rdf-syntax-ns#"
   xmlns:svg="http://www.w3.org/2000/svg"
   xmlns="http://www.w3.org/2000/svg"
   xmlns:sodipodi="http://sodipodi.sourceforge.net/DTD/sodipodi-0.dtd"
   xmlns:inkscape="http://www.inkscape.org/namespaces/inkscape"
   width="136.30408mm"
   height="54.54438mm"
   viewBox="0 0 136.30408 54.54438"
   version="1.1"
   id="svg9338"
   inkscape:version="0.92.4 (5da689c313, 2019-01-14)"
   sodipodi:docname="GUCIC-Logo-Landscape-Original-trans-white.svg"
   inkscape:export-filename="C:\Users\halattas\Dropbox\MyBusiness\Gulf Union\04. GU Reference\GU LOGO\GUCIC-Logo-Landscape-Original-trans.png"
   inkscape:export-xdpi="96"
   inkscape:export-ydpi="96">
  <defs
     id="defs9332" />
  <sodipodi:namedview
     id="base"
     pagecolor="#ffffff"
     bordercolor="#666666"
     borderopacity="1.0"
     inkscape:pageopacity="0.0"
     inkscape:pageshadow="2"
     inkscape:zoom="2.0797101"
     inkscape:cx="250"
     inkscape:cy="73.097561"
     inkscape:document-units="mm"
     inkscape:current-layer="layer1"
     showgrid="false"
     fit-margin-top="0"
     fit-margin-left="0"
     fit-margin-right="0"
     fit-margin-bottom="0"
     inkscape:window-width="1680"
     inkscape:window-height="987"
     inkscape:window-x="-8"
     inkscape:window-y="-8"
     inkscape:window-maximized="1" />
  <metadata
     id="metadata9335">
    <rdf:RDF>
      <cc:Work
         rdf:about="">
        <dc:format>image/svg+xml</dc:format>
        <dc:type
           rdf:resource="http://purl.org/dc/dcmitype/StillImage" />
        <dc:title></dc:title>
      </cc:Work>
    </rdf:RDF>
  </metadata>
  <g
     inkscape:label="Layer 1"
     inkscape:groupmode="layer"
     id="layer1"
     transform="translate(263.18775,-3.6325714)">
    <path
       inkscape:connector-curvature="0"
       style="fill:#ffffff;fill-opacity:1;fill-rule:nonzero;stroke:none;stroke-width:0.28473952"
       d="m -156.75679,17.153058 c 0,0 -1.69551,0.178276 -2.96829,0.669714 -1.27251,0.492601 -1.632,0.790019 -2.15336,1.15136 -0.092,0.06353 -0.14438,0.106945 -0.22479,0.167931 0.53898,0.0093 0.85527,0.01191 1.3322,0.02791 0.11108,-0.102235 0.10719,-0.134408 0.19638,-0.207222 0.31864,-0.259688 0.59092,-0.509111 1.24695,-0.862488 0.47152,-0.25453 1.41552,-0.62791 1.73839,-0.721916 0.32235,-0.09602 0.83252,-0.225293 0.83252,-0.225293 z m 2.26912,0.03358 c 0,0 0.51069,0.12819 0.83301,0.223758 0.32348,0.09512 1.26828,0.46818 1.73839,0.722445 0.65574,0.352795 0.92723,0.602191 1.24645,0.862991 0.0899,0.0721 0.20426,0.213228 0.31729,0.315754 0.47723,-0.01429 1.0617,-0.0026 1.60041,-0.01032 v 0 c -0.0802,-0.063 -0.16488,-0.125439 -0.25683,-0.188621 -0.52049,-0.36076 -1.23719,-0.764064 -2.50941,-1.25521 -1.27365,-0.492337 -2.96931,-0.66974 -2.96931,-0.66974 z m -2.31564,0.497125 c 0,0 -0.70284,0.19476 -1.30535,0.46355 -0.91456,0.406321 -1.83811,1.081061 -1.83811,1.081061 l 1.76112,0.03463 c 0,0 0.008,-0.01984 0.0294,-0.06202 0.1905,-0.368459 0.45212,-0.695166 0.76533,-1.014915 0.0249,-0.0209 0.0487,-0.04424 0.0724,-0.06564 0.2645,-0.239766 0.51519,-0.436669 0.51519,-0.436669 z m 0.82682,0.03773 c 0,0 -0.0942,0.04982 -0.16017,0.08371 -0.0658,0.03247 -0.31933,0.138324 -0.6744,0.424789 -0.60166,0.487468 -0.91776,1.052645 -0.91776,1.052645 l 1.75233,0.01455 V 17.78152 Z m 0.54468,0 0.003,0.05996 v 1.515665 l 1.75131,-0.01455 c 0,0 -0.31526,-0.565176 -0.91776,-1.052645 -0.35592,-0.286464 -0.6095,-0.392324 -0.67387,-0.424788 -0.0669,-0.03389 -0.16227,-0.08371 -0.16227,-0.08371 z m 1.16686,0.0098 c 0,0 0.25069,0.196136 0.5152,0.436139 0.0251,0.02249 0.0487,0.0435 0.075,0.0672 0.31264,0.318611 0.57431,0.645529 0.76481,1.01285 0.0209,0.0413 0.0289,0.06202 0.0289,0.06202 l 1.7606,-0.03463 c 0,0 -0.92359,-0.673655 -1.83762,-1.080558 -0.60134,-0.268209 -1.30688,-0.463021 -1.30688,-0.463021 z m -8.50439,1.97559 c 0,0 -0.32589,0.277046 -0.96428,1.010788 -0.6364,0.736363 -1.35445,1.897036 -1.35445,1.897036 l -0.0972,0.201031 c 0,0 0.26022,-0.0436 0.5979,0 0.33714,0.04442 1.27434,0.794782 1.27434,0.794782 0,0 0.6637,-1.481244 0.89349,-1.93683 0.22837,-0.45929 1.23042,-1.874308 1.23042,-1.874308 0,0 -0.0988,-0.02275 -0.22944,-0.02275 -0.131,0 -1.35083,-0.06977 -1.35083,-0.06977 z m 14.47302,0.02688 -1.71826,0.03564 c 0,0 0.1441,0.144438 0.27959,0.297658 0.13438,0.152637 0.52051,0.630236 0.7648,0.953451 0.2426,0.325147 0.65665,0.990336 0.86196,1.359085 0.20786,0.369016 0.46149,1.053148 0.46149,1.053148 0,0 0.21423,-0.197854 0.33176,-0.315224 0.11615,-0.116999 1.46503,-0.530198 1.46503,-0.530198 0,0 -0.13224,-0.352506 -0.24133,-0.531232 -0.10906,-0.179651 -0.81844,-1.000257 -1.15189,-1.367868 -0.33258,-0.369597 -1.05315,-0.954459 -1.05315,-0.954459 z m -12.28349,0.07596 -1.18753,1.371997 c 0,0 0.7624,-0.129514 1.27434,-0.142108 0.51168,-0.01005 1.33945,0.208255 1.33945,0.208255 l 0.65527,-1.438144 z m 7.88426,0.01085 0.14314,0.192246 c 0.14208,0.192485 0.25191,0.494453 0.61238,1.296538 0.35989,0.80129 0.46768,1.718257 0.46768,1.718257 h 3.00498 c 0,0 -0.41418,-0.846164 -0.73795,-1.429888 -0.32345,-0.585455 -1.37303,-1.777165 -1.37303,-1.777165 h -2.04795 z m -5.29217,0.02117 -0.60978,1.458806 c 0,0 0.0446,0.03265 0.15192,0.08734 0.1102,0.05413 0.3393,0.392166 0.55655,0.674899 0.21754,0.283316 0.53227,0.916226 0.53227,0.916226 l 1.38649,0.0042 -0.003,-3.141398 z m 2.59207,0.01032 v 3.149681 h 3.25718 c 0,0 -0.26125,-1.37377 -0.59893,-2.102697 -0.33769,-0.730911 -0.46199,-1.04439 -0.46199,-1.04439 z m -6.57063,1.920293 -0.0775,0.120941 c 0,0 -0.34359,0.584518 -0.41961,0.759645 -0.0752,0.174043 -0.18605,0.358617 -0.18605,0.358617 l 1.14411,-0.02117 c 0,0 -0.14706,-0.121708 -0.28628,-0.401532 -0.13584,-0.279611 -0.17465,-0.433943 -0.17465,-0.541575 z m 10.5306,1.611789 c 0,0 0.0241,0.05628 0.10647,0.383461 0.0814,0.326019 0.26821,1.997789 0.26821,1.997789 0,0 0.13044,-0.06699 0.23667,-0.114194 0.10649,-0.0495 0.3031,-0.0427 0.39171,0 0.0897,0.03895 0.26109,0.152955 0.39944,0.152955 0.13896,0 0.43985,0.106707 0.65114,0.147797 0.21183,0.04072 0.70827,-0.0085 0.83818,-0.04908 0.13157,-0.04001 0.51625,-0.03307 0.51625,-0.03307 0,0 0.0332,-0.0079 0.0563,-0.113692 0.0249,-0.105357 0.24437,-0.414337 0.30128,-0.537448 0.0576,-0.123058 0.0175,-0.244422 0.0175,-0.244422 0,0 -0.0899,-0.162983 -0.14883,-0.269743 -0.0564,-0.105648 -0.14507,-0.383011 -0.17778,-0.505407 -0.0325,-0.121867 -0.032,-0.382905 -0.032,-0.382905 l -0.0486,-0.114723 -0.19638,-0.317315 h -3.17913 z m -0.58962,0.0077 -3.40236,0.01243 v 1.496563 c 0,0 0.34102,0.01296 0.55343,0.206693 0.21156,0.192193 0.53888,0.642725 0.91159,0.848016 0.37301,0.204999 0.53454,0.339936 0.88107,0.301783 0.3471,-0.03879 0.69358,-0.06326 0.8351,0.0071 0.14121,0.07138 0.38452,0.198861 0.50125,0.353457 0.11592,0.153776 0.21085,0.391716 0.21085,0.391716 l 0.0336,0.05786 c 0,0 0.0182,-0.835581 -0.0444,-1.368901 -0.0641,-0.533321 -0.22135,-1.489737 -0.30903,-1.792129 -0.0906,-0.302419 -0.17105,-0.51472 -0.17105,-0.51472 z m -5.13559,0.0066 0.013,0.48059 c 0,0 0.0311,0.104034 0.16693,0.224816 0.13385,0.122714 0.34605,0.289772 0.44286,0.352425 0.0962,0.06548 0.49556,0.310065 0.49556,0.310065 l 0.10232,0.0775 -0.007,-1.439704 z m -5.67304,0.05892 v 0 c 0,0 -0.14608,0.256408 -0.14108,0.408755 0.006,0.153485 -0.044,0.431641 -0.12506,0.642355 -0.0872,0.225214 -0.2353,0.453311 -0.26199,0.52451 -0.0266,0.06895 -0.054,0.119222 0,0.194813 0.0544,0.0766 0.20206,0.408093 0.30488,0.794782 0.10252,0.386953 -0.18603,0.942075 -0.18603,0.942075 l 3.12642,0.0045 c 0,0 0.0161,-0.1905 0.0269,-0.566367 0.0114,-0.37584 0.061,-1.627796 0.061,-1.627796 0,0 -0.0389,0.04284 -0.19119,0.07543 -0.1529,0.03209 -0.343,0.01085 -0.46252,-0.05943 -0.12067,-0.07117 -0.19087,-0.245666 -0.28887,-0.430451 -0.0982,-0.185102 -0.27646,-0.904345 -0.27646,-0.904345 z m 3.24424,2.159556 -0.0631,1.367869 1.06712,0.01799 c 0,0 -0.68469,-0.702998 -0.81598,-1.002533 -0.0781,-0.17907 -0.15761,-0.335386 -0.15761,-0.335386 z m -3.90157,1.848988 c 0,0 0.16859,0.22008 0.26458,0.441325 0.0946,0.222091 0.0382,0.577638 0.0238,0.726545 -0.0161,0.14949 -0.20612,0.584624 -0.23771,0.859393 -0.0318,0.279057 0.11208,0.7035 0.16587,0.894 0.0558,0.189071 0.22067,0.639233 0.22067,0.639233 h 3.17397 c 0,0 -0.14163,-0.796475 -0.21394,-1.3503 -0.0707,-0.552952 -0.0476,-2.210196 -0.0476,-2.210196 h -3.28247 z m 3.77754,0 v 0.145203 c 0,0 0.0521,0.661035 0.10646,1.38856 0.0496,0.725778 0.293,2.146616 0.293,2.146616 h 3.38585 c 0,0 -0.0193,-0.243046 -0.0265,-0.863494 -0.005,-0.62304 -0.046,-1.938919 -0.046,-1.938919 0,0 0.009,-0.05215 -0.0713,-0.15658 -0.0783,-0.105119 -0.21625,-0.197406 -0.38706,-0.197406 -0.16775,0 -0.28075,0.413227 -0.34055,0.602562 -0.0584,0.190553 -0.31348,0.177589 -0.45164,0.157084 -0.13753,-0.01931 -0.2675,-0.1905 -0.3664,-0.398939 -0.0958,-0.20955 -0.0909,-0.884687 -0.0909,-0.884687 z m 9.11727,0.107473 c 0,0 0.0408,0.261382 0.0889,0.59481 0.0501,0.335121 0,0.962343 -0.0398,1.452113 -0.0407,0.488869 -0.34933,1.637611 -0.34933,1.637611 l 2.87681,0.05014 0.009,-0.06668 c 0,0 0.0561,-0.121577 0.0651,-0.18759 0.006,-0.06461 0.10586,-0.487204 0.13746,-0.627354 0.0322,-0.138932 0.0665,-0.34999 0.0486,-0.496595 -0.0153,-0.146368 -0.18592,-0.464873 -0.37412,-0.668179 -0.18709,-0.205317 -0.37444,-0.45675 -0.51366,-0.814943 -0.13841,-0.359648 -0.0904,-0.873337 -0.0904,-0.873337 h -1.85778 z m -4.81364,2.814822 0.0393,0.82423 3.54346,0.110596 c 0,0 -0.25022,-0.189574 -0.39997,-0.235136 -0.14983,-0.04609 -0.4595,-0.08469 -0.74054,-0.01852 -0.28075,0.0644 -0.64818,0.08472 -0.86402,0.03773 -0.21725,-0.045 -0.60159,-0.156871 -0.93586,-0.327104 -0.33486,-0.169757 -0.5171,-0.287708 -0.5638,-0.319882 -0.0466,-0.03389 -0.078,-0.07184 -0.078,-0.07184 z m -8.07651,0.837671 c 0,0 -0.0565,0.058 -0.14677,0.188621 -0.0903,0.130969 -0.42468,0.359913 -0.67127,0.401003 -0.24519,0.04212 -1.21957,-0.02487 -1.21957,-0.02487 l 0.2036,0.303847 c 0,0 0.16359,0.293529 0.54829,0.835105 0.38553,0.542131 1.22111,1.548738 1.22111,1.548738 l 2.12185,0.06511 c 0,0 -0.12428,-0.114697 -0.30335,-0.31885 -0.18081,-0.206136 -0.37716,-0.632327 -0.64595,-1.033515 -0.27136,-0.399785 -1.04955,-1.932702 -1.04955,-1.932702 z m 15.91892,0.206719 c 0,0 -0.10279,0.659765 -0.41341,1.241768 -0.31094,0.580867 -1.20304,1.834013 -1.20304,1.834013 h 2.02883 c 0,0 0.95676,-1.034256 1.22782,-1.551329 0.27109,-0.515967 0.29713,-0.826826 0.29713,-0.826826 l -1.23971,-0.464581 z m -3.66128,0.07853 c 0,0 -0.13081,0.836003 -0.36949,1.50741 -0.23633,0.671142 -0.46599,1.270556 -0.5147,1.367367 l -0.0501,0.09869 h 2.08153 c 0,0 1.04867,-1.301432 1.35961,-1.835017 0.31009,-0.532765 0.44236,-0.769991 0.44236,-0.769991 l 0.13901,-0.245454 0.048,-0.123004 h -0.0398 z m -0.66765,0.0082 -0.0408,0.0026 h -3.31763 c 0,0 0.0496,2.417525 0.0496,2.664963 0,0.246883 0.0201,0.326073 0.0201,0.326073 h 2.22879 c 0,0 0.52531,-1.197954 0.68419,-1.713072 0.15809,-0.515937 0.33538,-1.158081 0.33538,-1.158081 z m -10.8934,0.0093 -0.0393,0.0026 0.0465,0.121418 0.14108,0.244448 c 0,0 0.13086,0.237913 0.44236,0.771525 0.31038,0.530463 1.35961,1.833483 1.35961,1.833483 h 2.081 l -0.0501,-0.09768 c -0.049,-0.09792 -0.27742,-0.696383 -0.51575,-1.368372 -0.23757,-0.672015 -0.36896,-1.50691 -0.36896,-1.50691 z m 3.56878,0.0071 0.0398,0.121947 c 0,0 0.17814,0.644366 0.33642,1.158584 0.15774,0.514826 0.68214,1.714129 0.68214,1.714129 h 2.23034 c 0,0 0.0191,-0.07916 0.0191,-0.326601 0,-0.247439 0.0506,-2.664963 0.0506,-2.664963 h -3.31867 z m -1.20666,3.536209 c 0,0 1.07447,1.026531 2.10582,1.57406 0.67683,0.360203 1.66346,0.55192 1.66346,0.55192 0,0 -0.47818,-0.263974 -0.77771,-0.586025 -0.0271,-0.02868 -0.054,-0.0594 -0.0811,-0.0894 -0.35393,-0.429657 -0.64807,-0.868839 -0.86249,-1.363716 -0.0241,-0.0563 -0.0341,-0.08424 -0.0341,-0.08424 z m 2.54146,0 c 0,0 0.38909,0.815446 1.06762,1.490848 0.39923,0.397246 0.68847,0.543613 0.75964,0.588619 0.0757,0.04649 0.26099,0.15658 0.26099,0.15658 v -0.134884 l -0.15349,-2.101163 z m 2.8081,0.0032 -0.15298,2.101691 v 0.134858 c 0,0 0.18613,-0.110331 0.25992,-0.155019 0.0729,-0.0467 0.36082,-0.191453 0.76171,-0.590656 0.67768,-0.67482 1.06712,-1.490874 1.06712,-1.490874 z m 4.50773,0.01799 -2.01591,0.0032 c 0,0 -0.008,0.02778 -0.0325,0.08268 -0.2144,0.495432 -0.5093,0.935646 -0.86353,1.364773 -0.0272,0.0303 -0.0551,0.06017 -0.0827,0.08887 -0.29784,0.323189 -0.77565,0.587058 -0.77565,0.587058 0,0 0.9861,-0.190659 1.66293,-0.551392 1.03219,-0.548984 2.10738,-1.575091 2.10738,-1.575091 z m -12.29487,0.0026 h -0.077 c 0,0 1.65251,1.376204 3.23339,2.076371 1.21754,0.539274 1.97551,0.680297 2.50113,0.75602 0.52679,0.0772 1.05268,0.07752 1.05268,0.07752 0,0 -1.66407,-0.368644 -2.87478,-1.206659 -1.06125,-0.734907 -1.68788,-1.430708 -1.73943,-1.494473 -0.0508,-0.0639 -0.11885,-0.209814 -0.11885,-0.209814 z m 13.08862,0 c 0,0 -0.0684,0.145918 -0.12041,0.209815 -0.0515,0.06376 -0.67765,0.759566 -1.73942,1.494473 -1.21156,0.838014 -2.87581,1.206658 -2.87581,1.206658 0,0 0.52832,0 1.0542,-0.07752 0.52536,-0.07572 1.28366,-0.216747 2.50063,-0.75602 1.5806,-0.700167 3.23287,-2.076371 3.23287,-2.076371 h -0.0775 z"
       id="path3004"
       inkscape:export-xdpi="96"
       inkscape:export-ydpi="96" />
    <path
       inkscape:connector-curvature="0"
       style="fill:#ffffff;fill-opacity:1;fill-rule:nonzero;stroke:none;stroke-width:0.28473952"
       d="m -166.21718,22.699995 c -0.85556,0.004 -1.75411,0.04495 -2.28515,0.04495 -1.06122,0 -1.68217,0.40804 -2.0102,0.800999 -0.32716,0.390366 0.11504,1.208776 0.26199,1.501193 0.14663,0.295275 -0.11438,0.572717 -0.21238,0.964803 -0.0982,0.392113 0.0823,1.192927 0.11419,1.388534 0.0336,0.19677 -0.14698,0.47363 -0.22789,0.867145 -0.0823,0.390657 0.0315,0.783934 0.0315,0.783934 l 0.11422,0.326072 c 0.1151,0.326311 0.0816,0.522791 0.0164,0.898657 -0.0651,0.376132 -0.20776,1.482751 -0.20776,2.15646 0,0.675666 0.67612,1.546331 1.41645,1.873779 0.74033,0.325755 1.26378,0.456803 2.04796,1.241266 0.78329,0.783326 0.52297,1.960351 0.74051,3.660246 0.21754,1.69762 1.50307,2.657528 3.26646,4.420923 1.7648,1.764824 5.22821,2.483617 5.59864,2.396226 0.37044,-0.08771 0.37049,-0.282152 0.37049,-0.282152 v -3.160025 c 0,-0.958426 0,-3.071177 -0.17518,-3.441647 -0.17282,-0.369861 -0.9994,-0.717788 -0.9994,-0.717788 0,0 -0.32857,-0.126021 -0.50798,-0.158115 -0.17881,-0.03191 -1.04571,-0.277548 -1.61748,-0.458364 -0.57089,-0.178832 -1.78109,-0.865584 -3.02254,-1.943047 -1.24063,-1.079447 -2.28624,-2.761774 -2.53111,-3.05562 -0.24506,-0.293873 -0.11343,-0.669396 -0.0161,-0.833014 0.0976,-0.163407 0.40688,-0.09827 0.76793,-0.06614 0.35877,0.03244 1.24071,-0.114273 1.48672,-0.228944 0.24429,-0.113876 0.42291,-0.407617 0.44079,-0.7493 0.0161,-0.343958 -0.31091,-1.014597 -0.3271,-1.227322 -0.0156,-0.212408 0.19709,-0.849154 0.26149,-1.322388 0.0657,-0.474106 -0.16367,-0.670533 -0.22688,-0.783934 -0.0665,-0.114776 -0.0996,-0.146817 -0.018,-0.213439 0.0809,-0.06406 0.34316,-0.472996 0.44026,-0.898128 0.0994,-0.42455 -0.16213,-1.029811 -0.22942,-1.208723 -0.0633,-0.180234 -0.16219,-0.342794 -0.11318,-0.407193 0.0501,-0.06691 0.35991,-0.393303 0.27749,-1.079527 -0.082,-0.685932 -0.89863,-0.914664 -0.89863,-0.914664 -0.3592,-0.147056 -1.17173,-0.179732 -2.02726,-0.17571 z m 0.16121,0.546735 c 0.89635,0.0127 1.29836,-0.03913 1.55805,0.115755 0.26025,0.15666 0.52004,0.429948 0.41497,0.689372 -0.10281,0.259397 -0.25976,0.479028 -0.7643,0.479028 -0.50771,0 -2.77929,0.092 -3.2861,0.092 -0.50657,0 -1.41494,0.03781 -1.58234,-0.05167 -0.1692,-0.0908 -0.30075,-0.272283 -0.30075,-0.454237 0,-0.181663 0.0146,-0.234024 0.046,-0.315754 0.03,-0.08109 0.0535,-0.112474 0.0641,-0.133826 0.0143,-0.02037 0.0465,-0.04445 0.0465,-0.04445 0,0 0.18135,-0.247068 0.50538,-0.260456 0.32634,-0.0127 2.40271,-0.128138 3.29851,-0.115755 z m 0.003,2.22623 c 0.89437,0.0127 1.29733,-0.03892 1.55702,0.116788 0.26054,0.155389 0.51938,0.426746 0.416,0.687281 -0.10337,0.259398 -0.25954,0.481119 -0.76636,0.481119 -0.50599,0 -2.77754,0.09043 -3.28354,0.09043 -0.50655,0 -1.41588,0.03995 -1.58387,-0.05064 -0.16938,-0.0912 -0.29972,-0.273341 -0.29972,-0.455269 0,-0.181663 0.0148,-0.234315 0.0439,-0.315753 0.0307,-0.0816 0.0552,-0.112554 0.0672,-0.132292 0.0108,-0.02223 0.045,-0.04546 0.045,-0.04546 0,0 0.17905,-0.306362 0.50385,-0.318347 0.32374,-0.0127 2.40506,-0.07117 3.30057,-0.05787 z m -0.0238,2.21742 c 0.8958,0.01429 1.29807,-0.03963 1.55804,0.115756 0.2597,0.156845 0.51859,0.428836 0.41496,0.689372 -0.10388,0.258815 -0.0478,0.476461 -0.55396,0.476461 -0.50629,0 -3.01316,-0.0254 -3.5197,-0.0254 -0.506,0 -1.391,0.159094 -1.5596,0.06924 -0.16937,-0.0926 -0.29918,-0.2735 -0.29918,-0.456301 0,-0.180816 0.014,-0.234077 0.0429,-0.315224 0.031,-0.0811 0.0565,-0.110596 0.0677,-0.132292 0.0127,-0.02117 0.046,-0.04495 0.046,-0.04495 -3e-5,0 0.22791,-0.334671 0.55137,-0.348297 0.32546,-0.0127 2.3554,-0.04244 3.25148,-0.02844 z m 0.0169,2.158022 c 0.8958,0.01429 1.29786,-0.0386 1.55755,0.116787 0.25994,0.156103 0.48212,0.4164 0.41547,0.688339 -0.0903,0.361897 -0.23661,0.61079 -0.7426,0.61079 -0.50483,2.7e-5 -2.80247,-0.0403 -3.30676,-0.0403 -0.50769,0 -1.44067,0.181158 -1.61179,0.092 -0.23122,-0.119513 -0.27234,-0.416243 -0.27234,-0.597906 0,-0.181689 0.0143,-0.234024 0.0445,-0.315753 0.03,-0.08149 0.0543,-0.111443 0.0661,-0.132795 0.0127,-0.02037 0.046,-0.04548 0.046,-0.04548 0,0 0.16944,-0.328771 0.4935,-0.341577 0.32518,-0.0127 2.41406,-0.0467 3.31039,-0.0341 z"
       id="path3140"
       inkscape:export-xdpi="96"
       inkscape:export-ydpi="96" />
    <path
       inkscape:connector-curvature="0"
       style="fill:#ffffff;fill-opacity:1;fill-rule:nonzero;stroke:none;stroke-width:0.28473952"
       d="m -144.79731,22.896369 c -0.85609,-0.004 -1.66981,0.02865 -2.02986,0.175709 0,0 -0.81571,0.227701 -0.89659,0.913633 -0.082,0.687361 0.22762,1.014069 0.27802,1.078997 0.0481,0.06591 -0.0503,0.227939 -0.11522,0.408755 -0.0659,0.178911 -0.32637,0.783881 -0.22842,1.208723 0.0962,0.425397 0.35912,0.833834 0.4403,0.897625 0.082,0.06599 0.0496,0.09858 -0.0161,0.212381 -0.0651,0.114671 -0.29414,0.311441 -0.22892,0.784966 0.0651,0.474371 0.27866,1.110774 0.26043,1.322917 -0.0161,0.212988 -0.3415,0.882358 -0.32555,1.22576 0.0161,0.342265 0.19476,0.636905 0.4408,0.75139 0.24572,0.113401 1.12768,0.261647 1.48672,0.228918 0.35965,-0.03411 0.67014,-0.09787 0.76637,0.06562 0.0983,0.16346 0.22963,0.539195 -0.0146,0.833041 -0.24545,0.292999 -1.29021,1.976173 -2.53111,3.05562 -1.24288,1.078018 -2.4521,1.763024 -3.02357,1.94355 -0.57119,0.180234 -1.43815,0.424418 -1.61695,0.4563 -0.18055,0.03299 -0.50747,0.159676 -0.50747,0.159676 v 0 c 0,0 -0.82667,0.347848 -1.0015,0.718317 -0.17458,0.370444 -0.17466,2.483724 -0.17466,3.44215 v 3.158464 c 0,0 1.1e-4,0.195765 0.37,0.28321 0.37044,0.08578 3.83495,-0.632513 5.59863,-2.396755 1.76483,-1.764533 3.04962,-2.722959 3.268,-4.421452 0.21813,-1.699604 -0.044,-2.876523 0.74002,-3.661278 0.78417,-0.783034 1.3064,-0.914161 2.04846,-1.240737 0.74033,-0.32631 1.41644,-1.197927 1.41644,-1.872747 0,-0.674846 -0.14263,-1.780381 -0.20928,-2.155957 -0.0651,-0.376688 -0.0981,-0.572742 0.018,-0.900191 l 0.11523,-0.326099 c 0,0 0.11371,-0.392377 0.0315,-0.783907 -0.0815,-0.392933 -0.26194,-0.670534 -0.22892,-0.865585 0.0339,-0.19677 0.21295,-0.997029 0.11525,-1.388559 -0.0974,-0.39206 -0.35879,-0.670957 -0.21187,-0.964803 0.14695,-0.293291 0.58771,-1.109769 0.26199,-1.503257 -0.32745,-0.390948 -0.94789,-0.799439 -2.00969,-0.799439 -0.53034,0 -1.42907,-0.04093 -2.28514,-0.04495 z m -0.16383,0.546232 c 0.8958,-0.01349 2.97259,0.104166 3.29748,0.116787 0.32517,0.01376 0.50591,0.259927 0.50591,0.259927 0,0 0.0329,0.02355 0.0455,0.04495 0.0116,0.02196 0.0357,0.0507 0.0667,0.132292 0.0292,0.0817 0.0439,0.133985 0.0439,0.316786 0,0.18108 -0.13038,0.363299 -0.29869,0.453204 -0.16771,0.09218 -1.07727,0.05218 -1.5844,0.05218 -0.50684,0 -2.77588,-0.09147 -3.283,-0.09147 -0.50739,0 -0.663,-0.22016 -0.76637,-0.479557 -0.10393,-0.260245 0.15632,-0.53348 0.41601,-0.688314 0.25826,-0.156157 0.66037,-0.104219 1.55699,-0.116787 z m 0,2.226204 c 0.89609,-0.01376 2.97513,0.04527 3.30057,0.05789 0.32396,0.01217 0.50282,0.317791 0.50282,0.317791 0,0 0.0323,0.02434 0.045,0.04498 0.0124,0.02196 0.037,0.0517 0.0672,0.132794 0.0301,0.08173 0.0424,0.134065 0.0424,0.315754 0,0.181954 -0.12829,0.363935 -0.29713,0.45474 -0.16914,0.09091 -1.07823,0.05167 -1.58337,0.05167 -0.50739,0 -2.77908,-0.09094 -3.28506,-0.09094 -0.50626,0 -0.66286,-0.220662 -0.76584,-0.480086 -0.10366,-0.259953 0.15505,-0.532024 0.41444,-0.688314 0.2594,-0.155786 0.663,-0.10369 1.55906,-0.116284 z m 0.0222,2.216415 c 0.8961,-0.0127 2.92643,0.01667 3.25046,0.03101 0.32547,0.01243 0.55346,0.345704 0.55346,0.345704 0,0 0.0329,0.02408 0.0455,0.04598 0.0119,0.02143 0.0366,0.05173 0.0667,0.132821 0.0305,0.08141 0.0429,0.13372 0.0429,0.316256 0,0.181399 -0.1283,0.363644 -0.29713,0.454237 -0.16973,0.09075 -1.05471,-0.06821 -1.56011,-0.06821 -0.50769,0 -3.01424,0.02646 -3.52021,0.02646 -0.50622,0 -0.45026,-0.218837 -0.55398,-0.478526 -0.10393,-0.258524 0.1547,-0.531574 0.41497,-0.686779 0.25966,-0.156104 0.66289,-0.104457 1.55752,-0.118851 z m -0.0164,2.159555 c 0.89609,-0.0127 2.98545,0.0209 3.31092,0.03358 0.32522,0.01402 0.49403,0.343667 0.49403,0.343667 0,0 0.0324,0.02302 0.045,0.04392 0.0127,0.0209 0.0361,0.05181 0.0662,0.133323 0.0288,0.08199 0.0434,0.132662 0.0434,0.315727 0,0.18169 -0.0395,0.478473 -0.2713,0.596345 -0.17085,0.08964 -1.10461,-0.09043 -1.60972,-0.09043 -0.50742,0 -2.80247,0.03979 -3.30989,0.03979 -0.50512,0 -0.65214,-0.24884 -0.74155,-0.61132 -0.0669,-0.271359 0.15579,-0.532077 0.41548,-0.68781 0.25969,-0.15539 0.6623,-0.102394 1.55752,-0.116788 z"
       id="path3160"
       inkscape:export-xdpi="96"
       inkscape:export-ydpi="96" />
    <text
       id="text3186"
       style="font-variant:normal;font-weight:300;font-stretch:normal;font-size:7.21074486px;font-family:'GE Dinar One';-inkscape-font-specification:GEDinarOne-Light;writing-mode:lr-tb;fill:#ffffff;fill-opacity:1;fill-rule:nonzero;stroke:none;stroke-width:0.28473952;"
       x="-250.20461"
       y="32.09568"
       inkscape:export-xdpi="96"
       inkscape:export-ydpi="96">
      <tspan
         id="tspan3184"
         sodipodi:role="line"
         y="32.09568"
         x="-250.20461 -246.18819 -244.45039 -241.35701 -239.46773 -235.61714 -233.15114 -231.41328 -230.36061 -229.1924 -224.07283 -221.60683 -217.81386 -215.92464 -213.45863 -210.99251"
         style="stroke-width:0.28473952;fill:#ffffff;">ﻲﻧوﺎﻌﺘﻟا ﻦﻴﻣﺄﺘﻠﻟ</tspan>
    </text>
    <text
       id="text3190"
       style="font-variant:normal;font-weight:500;font-stretch:normal;font-size:7.21074486px;font-family:'GE Dinar One';-inkscape-font-specification:GEDinarOne-Medium;writing-mode:lr-tb;fill:#ffffff;fill-opacity:1;fill-rule:nonzero;stroke:none;stroke-width:0.28473952;"
       x="-208.08662"
       y="32.09568"
       inkscape:export-xdpi="96"
       inkscape:export-ydpi="96">
      <tspan
         id="tspan3188"
         sodipodi:role="line"
         y="32.09568"
         x="-208.08662 -202.91652 -200.11153 -197.21278 -192.55464 -190.55721 -189.25209 -188.084 -184.60121 -182.62544 -177.9673 -175.87617"
         style="stroke-width:0.28473952;fill:#ffffff;">ﺞﻴﻠﺨﻟا دﺎﺤﺗإ</tspan>
    </text>
    <text
       id="text3194"
       style="font-variant:normal;font-weight:bold;font-stretch:normal;font-size:3.82713294px;font-family:Helvetica;-inkscape-font-specification:Helvetica-Bold;writing-mode:lr-tb;fill:#ffffff;fill-opacity:1;fill-rule:nonzero;stroke:none;stroke-width:0.26710495;"
       transform="scale(0.93806764,1.0660212)"
       x="-266.24365"
       y="36.311752"
       inkscape:export-xdpi="96"
       inkscape:export-ydpi="96">
      <tspan
         id="tspan3192"
         sodipodi:role="line"
         y="36.311752"
         x="-266.24365 -263.26605 -260.50287 -258.16455 -255.82611 -254.76215 -251.99902 -249.23584 -248.17188 -245.1944 -242.43115"
         style="stroke-width:0.26710495;fill:#ffffff;">GULF UNION</tspan>
    </text>
    <text
       id="text3198"
       style="font-variant:normal;font-weight:300;font-stretch:normal;font-size:3.82713294px;font-family:'Helvetica Light';-inkscape-font-specification:Helvetica-Light;writing-mode:lr-tb;fill:#ffffff;fill-opacity:1;fill-rule:nonzero;stroke:none;stroke-width:0.26710495;"
       transform="scale(0.93806764,1.0660212)"
       x="-241.36719"
       y="36.311752"
       inkscape:export-xdpi="96"
       inkscape:export-ydpi="96">
      <tspan
         id="tspan3196"
         sodipodi:role="line"
         y="36.311752"
         x="-241.36719 -238.604 -235.62653 -232.64905 -230.31061 -227.97229 -225.41956 -223.21899 -221.09106 -220.02716 -217.68872 -215.3504 -214.28644 -213.22247 -210.45935 -208.12097 -205.35773 -202.80511 -200.25232 -197.4892 -194.72601 -192.38757 -191.32361 -188.56049 -185.58301"
         style="stroke-width:0.26710495;fill:#ffffff;">COOPERATIVE INSURANCE CO.</tspan>
    </text>
  </g>
</svg>
